<?xml version="1.0" encoding="utf-8"?>
<!-- Generator: Adobe Illustrator 20.1.0, SVG Export Plug-In . SVG Version: 6.00 Build 0)  -->
<svg version="1.1" xmlns="http://www.w3.org/2000/svg" xmlns:xlink="http://www.w3.org/1999/xlink" x="0px" y="0px"
	 viewBox="0 0 842 193" style="enable-background:new 0 0 842 193;" xml:space="preserve">
<style type="text/css">
	._x005B_Default_x005D_{fill:#FFFFFF;stroke:#000000;}
	.st0{fill:#FFFFFF;}
	.st1{fill:#FDFEFF;}
	.st2{fill:#163E91;}
	.st3{fill:#2D9D5D;}
	.st4{fill:#2F9F63;}
	.st5{fill:#CEE0E7;}
	.st6{fill-rule:evenodd;clip-rule:evenodd;fill:#FFFFFF;}
</style>
<g id="Guides">
</g>
<g id="Layer_1">
	<g>
		<polygon class="st0" points="194.8,135.4 191.1,135.4 171.5,81.9 179.5,81.9 193.1,120.8 206.1,81.9 213.9,81.9 		"/>
		<path class="st0" d="M247,116.1h-27.9c0,4.5,1.2,8,3.7,10.4c2.2,2.1,5,3.2,8.5,3.2c3.9,0,7.2-1.1,9.8-3.4l2.9,4.9
			c-1.1,1.1-2.7,2-4.9,2.7c-2.7,1-5.8,1.5-9.2,1.5c-4.9,0-9-1.6-12.4-4.9c-3.8-3.6-5.7-8.5-5.7-14.7c0-6.4,1.9-11.5,5.8-15.3
			c3.5-3.4,7.6-5.2,12.3-5.2c5.5,0,9.8,1.6,12.9,4.7c3,3,4.5,7,4.5,11.9C247.5,113.4,247.4,114.8,247,116.1z M230.4,101.1
			c-3.1,0-5.6,1-7.7,3c-2,1.9-3.1,4.2-3.4,7h21.4c0-2.8-0.9-5.1-2.6-7C236.3,102.1,233.7,101.1,230.4,101.1z"/>
		<path class="st0" d="M257.2,101.5h-4.4v-5.4h4.4v-8l6.9-2.6v10.7h10.6v5.4h-10.6v19.2c0,3.3,0.5,5.6,1.6,6.9
			c1.1,1.4,2.8,2.1,5.3,2.1c1.7,0,3.5-0.4,5.4-1.3l1,6c-2.8,0.7-5.9,1.1-9.3,1.1c-3,0-5.6-1.1-7.7-3.4c-2.1-2.3-3.1-5.1-3.1-8.6
			V101.5z"/>
		<path class="st0" d="M316.5,116.1h-27.9c0,4.5,1.2,8,3.7,10.4c2.2,2.1,5,3.2,8.5,3.2c3.9,0,7.2-1.1,9.8-3.4l2.9,4.9
			c-1.1,1.1-2.7,2-4.9,2.7c-2.7,1-5.8,1.5-9.2,1.5c-4.9,0-9-1.6-12.4-4.9c-3.8-3.6-5.7-8.5-5.7-14.7c0-6.4,1.9-11.5,5.8-15.3
			c3.5-3.4,7.6-5.2,12.3-5.2c5.5,0,9.8,1.6,12.9,4.7c3,3,4.5,7,4.5,11.9C317,113.4,316.8,114.8,316.5,116.1z M299.9,101.1
			c-3.1,0-5.6,1-7.7,3c-2,1.9-3.1,4.2-3.4,7h21.4c0-2.8-0.9-5.1-2.6-7C305.7,102.1,303.1,101.1,299.9,101.1z"/>
		<path class="st0" d="M345.2,102.6c-1.5-1-3-1.5-4.5-1.5c-2.4,0-4.5,1.1-6.4,3.4c-1.8,2.2-2.7,4.9-2.7,8.1v22.2h-6.9V96.1h6.9v6.1
			c2.5-4.6,6.2-6.9,11.1-6.9c1.2,0,3,0.2,5.3,0.6L345.2,102.6z"/>
		<path class="st0" d="M356.1,134.7v-32.8h-5.3v-5.8H363v38.6H356.1z M359.9,81.5c1.2,0,2.2,0.4,3,1.2c0.8,0.8,1.2,1.8,1.2,3
			c0,1.2-0.4,2.2-1.2,3c-0.8,0.8-1.8,1.2-3,1.2c-1.2,0-2.2-0.4-3-1.2c-0.8-0.8-1.2-1.8-1.2-3c0-1.2,0.4-2.2,1.2-3
			C357.7,81.9,358.7,81.5,359.9,81.5z"/>
		<path class="st0" d="M397.7,134.7v-22.5c0-4.1-0.6-7-1.9-8.6c-1.2-1.6-3.3-2.5-6.2-2.5c-1.6,0-3.2,0.5-4.9,1.4
			c-1.7,0.9-3,2.1-3.9,3.5v28.7h-6.9V96.1h4.7l2.2,5c2.3-3.8,6-5.7,11.1-5.7c8.5,0,12.7,5.1,12.7,15.4v23.9H397.7z"/>
		<path class="st0" d="M470.5,116.1h-27.4c0,4.1,1.1,7.4,3.2,9.9c2.1,2.5,5,3.7,8.5,3.7c4.2,0,7.5-1.3,9.8-4l2.9,5.5
			c-1.9,1.7-3.9,2.8-6.1,3.4c-2.2,0.6-4.8,0.9-8,0.9c-4.1,0-7.6-1.1-10.7-3.4c0.1,1.2,0.3,2.3,0.4,3.4h-5.8
			c-0.3-1.1-0.7-2.8-1.3-5.2c-2.7,3.4-6.8,5.2-12.2,5.2c-3.2,0-5.9-1.1-8.2-3.2c-2.3-2.1-3.4-4.7-3.4-7.7c0-4.4,1.7-7.9,5.1-10.5
			c3.4-2.6,7.9-4,13.4-4c1.3,0,2.9,0.3,4.8,0.8c0-6.3-2.8-9.4-8.4-9.4c-4.3,0-7.6,1.2-9.9,3.5l-2.9-5.8c1.3-1.1,3.1-2,5.4-2.7
			c2.3-0.8,4.5-1.1,6.6-1.1c7.1,0,11.7,2.1,14,6.2c3.5-4.2,8-6.2,13.2-6.2c5.3,0,9.6,1.6,12.7,4.8c3.2,3.2,4.7,7.4,4.7,12.5
			C471,113.7,470.8,114.9,470.5,116.1z M435.6,115.7c-1.4-0.5-3-0.7-4.6-0.7c-3.4,0-6.3,1-8.5,2.9c-2.2,1.9-3.3,4-3.3,6.2
			c0,4,2.4,6.1,7.2,6.1c3.5,0,6.6-1.7,9.3-5V115.7z M443.1,111.1h21.5c0-3-1-5.4-3-7.2c-2-1.8-4.7-2.8-8-2.8c-2.9,0-5.4,1.1-7.4,3.3
			C444.1,106.5,443.1,108.8,443.1,111.1z"/>
		<path class="st0" d="M499.6,102.6c-1.5-1-3-1.5-4.5-1.5c-2.4,0-4.5,1.1-6.4,3.4c-1.8,2.2-2.7,4.9-2.7,8.1v22.2h-6.9V96.1h6.9v6.1
			c2.5-4.6,6.2-6.9,11.1-6.9c1.2,0,3,0.2,5.3,0.6L499.6,102.6z"/>
		<path class="st0" d="M510.5,134.7v-32.8h-5.3v-5.8h12.2v38.6H510.5z M514.3,81.5c1.2,0,2.2,0.4,3,1.2c0.8,0.8,1.2,1.8,1.2,3
			c0,1.2-0.4,2.2-1.2,3c-0.8,0.8-1.8,1.2-3,1.2c-1.2,0-2.2-0.4-3-1.2c-0.8-0.8-1.2-1.8-1.2-3c0-1.2,0.4-2.2,1.2-3
			C512.1,81.9,513.1,81.5,514.3,81.5z"/>
		<path class="st0" d="M552.1,134.7v-22.5c0-4.1-0.6-7-1.9-8.6c-1.2-1.6-3.3-2.5-6.2-2.5c-1.6,0-3.2,0.5-4.9,1.4
			c-1.7,0.9-3,2.1-3.9,3.5v28.7h-6.9V96.1h4.7l2.2,5c2.3-3.8,6-5.7,11.1-5.7c8.5,0,12.7,5.1,12.7,15.4v23.9H552.1z"/>
		<path class="st0" d="M566.1,132.4l2.4-6.5c3.8,2.5,6.9,3.8,9.2,3.8c4.2,0,6.4-1.8,6.4-5.3c0-2.6-2-4.7-6.1-6.6
			c-3.2-1.4-5.3-2.5-6.4-3.3c-1.1-0.7-2-1.6-2.8-2.5c-0.8-1-1.4-2-1.8-3c-0.4-1.1-0.6-2.2-0.6-3.4c0-3.2,1.2-5.7,3.5-7.4
			c2.3-1.8,5.3-2.7,9-2.7c2.8,0,6.3,0.9,10.6,2.7l-1.9,6.3c-2.7-2.1-5.4-3.2-8.2-3.2c-1.6,0-3,0.4-4.1,1.2c-1.1,0.8-1.7,1.7-1.7,2.9
			c0,2.5,1.4,4.4,4.2,5.6l4.9,2.2c3,1.4,5.2,2.9,6.6,4.7c1.4,1.8,2.1,4,2.1,6.6c0,3.5-1.2,6.2-3.6,8.1c-2.4,2-5.8,2.9-10.1,2.9
			C573.5,135.4,569.7,134.4,566.1,132.4z"/>
		<path class="st0" d="M600.9,101.5h-4.4v-5.4h4.4v-8l6.9-2.6v10.7h10.6v5.4h-10.6v19.2c0,3.3,0.5,5.6,1.6,6.9
			c1.1,1.4,2.8,2.1,5.3,2.1c1.7,0,3.5-0.4,5.4-1.3l1,6c-2.8,0.7-5.9,1.1-9.3,1.1c-3,0-5.6-1.1-7.7-3.4c-2.1-2.3-3.1-5.1-3.1-8.6
			V101.5z"/>
		<path class="st0" d="M630.9,134.7v-32.8h-5.3v-5.8h12.2v38.6H630.9z M634.7,81.5c1.2,0,2.2,0.4,3,1.2c0.8,0.8,1.2,1.8,1.2,3
			c0,1.2-0.4,2.2-1.2,3c-0.8,0.8-1.8,1.2-3,1.2c-1.2,0-2.2-0.4-3-1.2c-0.8-0.8-1.2-1.8-1.2-3c0-1.2,0.4-2.2,1.2-3
			C632.5,81.9,633.5,81.5,634.7,81.5z"/>
		<path class="st0" d="M651.2,101.5h-4.4v-5.4h4.4v-8l6.9-2.6v10.7h10.6v5.4h-10.6v19.2c0,3.3,0.5,5.6,1.6,6.9
			c1.1,1.4,2.8,2.1,5.3,2.1c1.7,0,3.5-0.4,5.4-1.3l1,6c-2.8,0.7-5.9,1.1-9.3,1.1c-3,0-5.6-1.1-7.7-3.4c-2.1-2.3-3.1-5.1-3.1-8.6
			V101.5z"/>
		<path class="st0" d="M684.5,96.1v24.6c0,6,2.6,8.9,7.7,8.9c2.3,0,4.3-0.6,6.2-1.9c1.9-1.3,3.1-2.8,3.7-4.5V96.1h6.9v38.6h-6.9
			v-5.3c-0.8,1.5-2.3,2.9-4.6,4.2c-2.3,1.3-4.6,1.9-6.8,1.9c-4.2,0-7.5-1.2-9.7-3.6c-2.3-2.4-3.4-5.9-3.4-10.3V96.1H684.5z"/>
		<path class="st0" d="M720.8,101.5h-4.4v-5.4h4.4v-8l6.9-2.6v10.7h10.6v5.4h-10.6v19.2c0,3.3,0.5,5.6,1.6,6.9
			c1.1,1.4,2.8,2.1,5.3,2.1c1.7,0,3.6-0.4,5.4-1.3l1,6c-2.8,0.7-5.9,1.1-9.3,1.1c-3.1,0-5.6-1.1-7.7-3.4c-2.1-2.3-3.1-5.1-3.1-8.6
			V101.5z"/>
		<path class="st0" d="M750,101.5h-4.4v-5.4h4.4v-8l6.9-2.6v10.7h10.6v5.4h-10.6v19.2c0,3.3,0.5,5.6,1.6,6.9
			c1.1,1.4,2.8,2.1,5.3,2.1c1.7,0,3.5-0.4,5.4-1.3l1,6c-2.8,0.7-5.9,1.1-9.3,1.1c-3,0-5.6-1.1-7.7-3.4c-2.1-2.3-3.1-5.1-3.1-8.6
			V101.5z"/>
		<path class="st0" d="M809.3,116.1h-27.9c0,4.5,1.2,8,3.7,10.4c2.2,2.1,5,3.2,8.5,3.2c3.9,0,7.2-1.1,9.8-3.4l2.9,4.9
			c-1.1,1.1-2.7,2-4.9,2.7c-2.7,1-5.8,1.5-9.2,1.5c-4.9,0-9-1.6-12.4-4.9c-3.8-3.6-5.7-8.5-5.7-14.7c0-6.4,1.9-11.5,5.8-15.3
			c3.5-3.4,7.5-5.2,12.3-5.2c5.5,0,9.8,1.6,12.9,4.7c3,3,4.5,7,4.5,11.9C809.8,113.4,809.6,114.8,809.3,116.1z M792.7,101.1
			c-3.1,0-5.6,1-7.7,3c-2,1.9-3.1,4.2-3.4,7H803c0-2.8-0.9-5.1-2.6-7C798.5,102.1,795.9,101.1,792.7,101.1z"/>
		<path class="st0" d="M819.5,101.5H815v-5.4h4.4v-8l6.9-2.6v10.7h10.6v5.4h-10.6v19.2c0,3.3,0.5,5.6,1.6,6.9
			c1.1,1.4,2.8,2.1,5.3,2.1c1.7,0,3.5-0.4,5.4-1.3l1,6c-2.8,0.7-5.9,1.1-9.3,1.1c-3,0-5.6-1.1-7.7-3.4c-2.1-2.3-3.1-5.1-3.1-8.6
			V101.5z"/>
		<path class="st1" d="M137.8,165.2c0,9-8.6,17.6-17.6,17.6H20.5c-9,0-17.6-8.6-17.6-17.6V23.5c0-9,8.6-17.6,17.6-17.6h99.7
			c9,0,17.6,8.6,17.6,17.6V165.2z"/>
		<path d="M137.8,165.2H137c0,4.2-2,8.5-5.2,11.6c-3.1,3.1-7.4,5.2-11.6,5.2H20.5c-4.2,0-8.4-2-11.6-5.2c-3.1-3.1-5.2-7.4-5.2-11.6
			V23.5c0-4.2,2-8.5,5.2-11.6c3.1-3.1,7.4-5.2,11.6-5.2h99.7c4.2,0,8.5,2,11.6,5.2c3.1,3.1,5.2,7.4,5.2,11.6v141.7h1.6V23.5
			c0-4.8-2.3-9.3-5.7-12.7c-3.4-3.4-8-5.6-12.7-5.7H20.5c-4.8,0-9.3,2.3-12.7,5.7c-3.4,3.4-5.6,8-5.7,12.7v141.7
			c0,4.8,2.3,9.3,5.7,12.7c3.4,3.4,8,5.6,12.7,5.6h99.7c4.8,0,9.3-2.3,12.7-5.6c3.4-3.4,5.7-8,5.7-12.7H137.8z"/>
		<path class="st2" d="M8.2,106.5c0,0,21.7-8.1,40.8-7.5c21.2,0.7,23.1,2.6,44.5,6.7c12.6,2.4,26.9,1.9,38.9-2l0,58.3
			c0,9.1-6.3,15.4-15.4,15.4H23.6c-9,0-15.4-6.4-15.4-15.4V106.5z"/>
		<path class="st1" d="M7.7,138.4c0,0,22.7-9.8,41.3-11.3c19.8-1.6,25.6,0.3,47,4.6c12.6,2.6,27.7,0,36.6-4.4l0,4.1
			c-8.9,4.3-24,6.4-36.6,3.9c-21.3-4.1-28.3-6.1-46.9-4.5C31.3,132.4,7.7,143,7.7,143L7.7,138.4z"/>
		<path class="st3" d="M80.4,99.6C56.7,87.7,33.4,82,8.2,91.9v10.6C39.2,91.6,57.9,95.6,80.4,99.6z"/>
		<path class="st4" d="M35,74.8c-8.2,0-17.1,1.4-26.8,4.8v8.4c2-0.6,11.2-4.6,25.5-4.6c9.5,0,21.3,1.8,34.7,7.5
			c2.6,1.1-0.7-0.6,12.2,5.5c11.9,5.6,22.4,7.3,30.9,7.3c13,0,21-4,21-4v-9.1c0,0-11,4.4-21.1,4.4c-1,0-2,0-3-0.1
			c-1.8-0.2-10.3,0.9-25.7-6.3C68.5,81.6,53.3,74.8,35,74.8z"/>
		<path class="st3" d="M77.6,82c3,1.4,9.2,4.6,13.7,6.6C74.8,73.1,56.2,61.9,31.2,62.2c-8.1,0.1-15.6,1.1-23,3.2v10.1
			C37.1,65.4,60,73.6,77.6,82z"/>
		<path class="st5" d="M132.5,26.6c0-9-6.3-15.4-15.4-15.4c-4.3,0-93.5,0-93.5,0c-9,0-15.4,6.4-15.4,15.4c0,5.5,0,34.2,0,34.2
			s22-6.5,45.9,0c14.1,3.9,21.4,8.9,38.2,21.8c11.3,8.7,23.2,7.8,28.5,6.5c8-1.8,11.7-3.7,11.7-3.7V26.6z"/>
		<circle class="st1" cx="91.2" cy="92.6" r="21.4"/>
		<rect x="180.8" y="164.9" class="st0" width="164.1" height="2.3"/>
		<g>
			<g>
				<polygon class="st6" points="378.1,182.6 368.3,164.6 365.3,182.2 361.8,182.2 366.3,157 367.7,157 377.3,174.2 380.3,157 
					383.7,157 379.2,182.6 				"/>
				<path class="st6" d="M384.1,175.4c0-3.3,1-6.1,2.9-8.5c1.9-2.4,4.4-3.5,7.4-3.5c2.2,0,4,0.6,5.1,1.8c1.2,1.2,1.8,2.9,1.8,5.2
					c0,1.8-0.4,3.6-1.1,5.5c-0.7,1.9-1.9,3.5-3.5,4.8c-1.6,1.3-3.5,1.9-5.8,1.9c-2.2,0-3.9-0.6-5.1-1.9
					C384.7,179.5,384.1,177.7,384.1,175.4z M387.6,175.2c0,3.1,1.3,4.7,3.9,4.7c1.9,0,3.5-0.9,4.6-2.8c1.1-1.9,1.7-4.1,1.7-6.5
					c0-3-1.3-4.5-3.9-4.5c-1.3,0-2.5,0.5-3.5,1.4c-1,0.9-1.7,2.2-2.2,3.6C387.8,172.6,387.6,174,387.6,175.2z"/>
				<path class="st6" d="M415.7,167c-0.7-0.6-1.5-0.8-2.4-0.8c-1.2,0-2.3,0.5-3.3,1.6c-1.1,1.1-1.7,2.4-2,3.8l-1.9,10.6h-3.3
					l3.3-18.5h3.3l-0.5,3c1.6-2.2,3.6-3.3,5.9-3.3c0.4,0,1,0.1,1.9,0.2L415.7,167z"/>
				<path class="st6" d="M433.5,182.6h-0.9l-3.4-12l-7.4,12H421l-3.5-18.9h3.3l2,11.7l6.9-11.7h0.9l3.3,11.8l5.8-11.8h3.4
					C439.3,171.3,436.1,177.5,433.5,182.6z"/>
				<path class="st6" d="M446.7,173.5c-0.1,0.6-0.2,1.1-0.2,1.6c0,1.5,0.4,2.7,1.3,3.5c0.9,0.8,2,1.2,3.6,1.2c1.4,0,2.7-0.5,4.1-1.5
					l-0.3,3.3c-1.8,0.6-3.5,0.9-4.9,0.9c-4.8,0-7.1-2.7-7.1-8c0-3.1,1-5.8,3-7.9c2-2.2,4.5-3.2,7.6-3.2c1.8,0,3.3,0.4,4.4,1.2
					c1.1,0.8,1.6,1.9,1.6,3.3c0,2-0.9,3.6-2.6,4.8c-1.7,1.2-3.8,1.7-6.3,1.7C449.3,174.4,447.9,174.1,446.7,173.5z M447.3,171.1
					c0.9,0.4,1.9,0.6,3.1,0.6c1.8,0,3.3-0.3,4.4-0.9c1.1-0.6,1.7-1.4,1.7-2.6c0-1.4-1-2.1-2.9-2.1
					C450.6,166.2,448.5,167.8,447.3,171.1z"/>
				<path class="st6" d="M459.6,187.4l1.6-2.4c2.1,1.1,3.8,1.6,5.2,1.6c1.5,0,2.8-0.3,3.8-0.8c1-0.6,1.5-1.4,1.5-2.4
					c0-0.5-0.2-0.9-0.5-1.2c-0.3-0.3-0.9-0.6-1.7-0.7l-3-0.5c-1.2-0.3-1.8-0.9-1.8-1.9c0-0.8,1-1.5,3-2.3l-0.6,0
					c-1.3,0-2.5-0.5-3.6-1.5c-1-1-1.5-2.2-1.5-3.6c0-2.4,0.8-4.4,2.3-5.9c1.6-1.5,3.5-2.3,6-2.3c1.7,0,3.1,0.4,4.1,1.2l1.6-1.8
					l1.8,1.9l-1.7,1.8c0.3,0.5,0.5,1.2,0.5,2.2c0,2-0.5,3.7-1.5,5.1c-1,1.4-2.3,2.4-3.9,3c-1.6,0.6-2.4,1.1-2.4,1.6
					c0,0.4,0.2,0.6,0.7,0.6c0.2,0,0.4,0,0.7-0.1c0.3-0.1,0.6-0.1,0.7-0.1c2.9,0,4.3,1.3,4.3,3.9c0,2-0.9,3.7-2.7,4.9
					c-1.8,1.2-4,1.8-6.5,1.8C463.3,189.5,461.2,188.8,459.6,187.4z M469.9,166.1c-1.3,0-2.4,0.5-3.3,1.6c-0.9,1-1.3,2.2-1.3,3.6
					c0,2.5,0.9,3.8,2.8,3.8c1.3,0,2.4-0.6,3.4-1.9c1-1.3,1.5-2.6,1.5-4c0-0.9-0.3-1.7-0.8-2.2C471.6,166.3,470.8,166.1,469.9,166.1z
					"/>
				<path class="st6" d="M484.8,156.5c0.6,0,1.2,0.2,1.6,0.7c0.4,0.4,0.7,1,0.7,1.6c0,0.6-0.2,1.2-0.7,1.6c-0.4,0.4-1,0.7-1.6,0.7
					c-0.6,0-1.2-0.2-1.6-0.7c-0.4-0.4-0.7-1-0.7-1.6c0-0.6,0.2-1.2,0.7-1.6C483.6,156.7,484.1,156.5,484.8,156.5z M479.5,182.2
					l2.8-15.7h-2.5l0.6-2.7h5.6l-3.3,18.4H479.5z"/>
				<path class="st6" d="M505.6,164.9l-2.3,10.7c-0.1,0.4-0.1,1-0.1,1.6c0,1.8,0.3,3.5,0.8,5h-3.3c-0.2-0.4-0.4-1-0.6-1.9
					c-0.5,0.7-1.3,1.2-2.4,1.6c-1.1,0.4-2.2,0.6-3.4,0.6c-1.8,0-3.2-0.5-4.3-1.6c-1-1.1-1.5-2.6-1.5-4.6c0-3.4,1-6.4,3-9
					c2-2.6,4.6-3.9,7.7-3.9C502.2,163.4,504.3,163.9,505.6,164.9z M501.9,166.8c-0.3-0.5-1.4-0.7-3.1-0.7c-1.8,0-3.4,1-4.8,2.9
					c-1.4,1.9-2.1,4.3-2.1,7.2c0,2.4,1.1,3.7,3.3,3.7c1.1,0,2.2-0.6,3.2-1.8c1-1.2,1.7-2.7,2.1-4.5L501.9,166.8z"/>
				<path class="st6" d="M518,182.2l1.9-10.7c0.2-1,0.3-1.7,0.3-2.4c0-2-1-2.9-3.1-2.9c-0.8,0-1.6,0.2-2.5,0.7
					c-0.9,0.5-1.6,1-2.1,1.6l-2.4,13.7h-3.3l2.5-14c0.1-0.3,0.1-0.7,0.1-1.1c0-1.2-0.1-2.2-0.4-3.1l3.2-0.6c0.3,1.7,0.5,2.6,0.4,2.7
					c1.4-1.8,3.4-2.7,6.1-2.7c3.3,0,5,1.7,5,5.1c0,0.7-0.1,1.4-0.2,2.3l-2,11.4H518z"/>
			</g>
			<g>
			</g>
			<polygon class="st6" points="544.7,182.6 542.9,182.6 538,157 541.8,157 545,175.4 554.4,157 558.3,157 			"/>
			<g>
				<path class="st6" d="M558.2,173.5c-0.1,0.6-0.2,1.1-0.2,1.6c0,1.5,0.4,2.7,1.3,3.5c0.9,0.8,2,1.2,3.6,1.2c1.4,0,2.7-0.5,4.1-1.5
					l-0.3,3.3c-1.8,0.6-3.5,0.9-4.9,0.9c-4.8,0-7.1-2.7-7.1-8c0-3.1,1-5.8,3-7.9c2-2.2,4.5-3.2,7.6-3.2c1.8,0,3.3,0.4,4.4,1.2
					c1.1,0.8,1.6,1.9,1.6,3.3c0,2-0.9,3.6-2.6,4.8c-1.7,1.2-3.8,1.7-6.3,1.7C560.7,174.4,559.3,174.1,558.2,173.5z M558.8,171.1
					c0.9,0.4,1.9,0.6,3.1,0.6c1.8,0,3.3-0.3,4.4-0.9c1.1-0.6,1.7-1.4,1.7-2.6c0-1.4-1-2.1-2.9-2.1C562,166.2,560,167.8,558.8,171.1z
					"/>
				<path class="st6" d="M576.8,166.4h-2.1l0.6-2.6h2.1l0.8-3.9l3.7-1.4l-1.2,5.3h5.1l-0.6,2.6h-5.1l-1.9,9.2
					c-0.2,0.7-0.2,1.3-0.2,1.7c0,1.8,0.9,2.6,2.6,2.6c0.9,0,1.8-0.2,2.7-0.6l-0.1,2.9c-0.9,0.3-2.5,0.5-4.6,0.5
					c-1.3,0-2.3-0.4-3.1-1.2c-0.7-0.8-1.1-1.9-1.1-3.3c0-0.3,0.1-0.7,0.2-1.2L576.8,166.4z"/>
				<path class="st6" d="M591,173.5c-0.1,0.6-0.2,1.1-0.2,1.6c0,1.5,0.4,2.7,1.3,3.5c0.9,0.8,2,1.2,3.6,1.2c1.4,0,2.7-0.5,4.1-1.5
					l-0.3,3.3c-1.8,0.6-3.5,0.9-4.9,0.9c-4.8,0-7.1-2.7-7.1-8c0-3.1,1-5.8,3-7.9c2-2.2,4.5-3.2,7.6-3.2c1.8,0,3.3,0.4,4.4,1.2
					c1.1,0.8,1.6,1.9,1.6,3.3c0,2-0.9,3.6-2.6,4.8c-1.7,1.2-3.8,1.7-6.3,1.7C593.6,174.4,592.2,174.1,591,173.5z M591.6,171.1
					c0.9,0.4,1.9,0.6,3.1,0.6c1.8,0,3.3-0.3,4.4-0.9c1.1-0.6,1.7-1.4,1.7-2.6c0-1.4-1-2.1-2.9-2.1
					C594.9,166.2,592.8,167.8,591.6,171.1z"/>
				<path class="st6" d="M618.5,167c-0.7-0.6-1.5-0.8-2.4-0.8c-1.2,0-2.3,0.5-3.3,1.6c-1.1,1.1-1.7,2.4-2,3.8l-1.9,10.6h-3.3
					l3.3-18.5h3.3l-0.5,3c1.6-2.2,3.6-3.3,5.9-3.3c0.4,0,1,0.1,1.9,0.2L618.5,167z"/>
				<path class="st6" d="M626,156.5c0.6,0,1.2,0.2,1.6,0.7c0.4,0.4,0.7,1,0.7,1.6c0,0.6-0.2,1.2-0.7,1.6c-0.4,0.4-1,0.7-1.6,0.7
					s-1.2-0.2-1.6-0.7c-0.4-0.4-0.7-1-0.7-1.6c0-0.6,0.2-1.2,0.7-1.6C624.9,156.7,625.4,156.5,626,156.5z M620.7,182.2l2.8-15.7
					h-2.4l0.6-2.7h5.6l-3.3,18.4H620.7z"/>
				<path class="st6" d="M641.3,182.2l1.9-10.7c0.2-1,0.3-1.7,0.3-2.4c0-2-1-2.9-3.1-2.9c-0.8,0-1.6,0.2-2.5,0.7
					c-0.9,0.5-1.6,1-2.1,1.6l-2.4,13.7H630l2.5-14c0.1-0.3,0.1-0.7,0.1-1.1c0-1.2-0.1-2.2-0.4-3.1l3.2-0.6c0.3,1.7,0.5,2.6,0.4,2.7
					c1.4-1.8,3.4-2.7,6.1-2.7c3.3,0,5,1.7,5,5.1c0,0.7-0.1,1.4-0.2,2.3l-2,11.4H641.3z"/>
				<path class="st6" d="M665.7,164.9l-2.3,10.7c-0.1,0.4-0.1,1-0.1,1.6c0,1.8,0.3,3.5,0.8,5h-3.3c-0.2-0.4-0.4-1-0.6-1.9
					c-0.5,0.7-1.3,1.2-2.4,1.6c-1.1,0.4-2.2,0.6-3.4,0.6c-1.8,0-3.2-0.5-4.3-1.6c-1-1.1-1.5-2.6-1.5-4.6c0-3.4,1-6.4,3-9
					c2-2.6,4.6-3.9,7.7-3.9C662.2,163.4,664.4,163.9,665.7,164.9z M662,166.8c-0.3-0.5-1.4-0.7-3.1-0.7c-1.8,0-3.4,1-4.8,2.9
					c-1.4,1.9-2.1,4.3-2.1,7.2c0,2.4,1.1,3.7,3.3,3.7c1.1,0,2.2-0.6,3.2-1.8c1-1.2,1.7-2.7,2.1-4.5L662,166.8z"/>
				<path class="st6" d="M680,167c-0.7-0.6-1.5-0.8-2.4-0.8c-1.2,0-2.3,0.5-3.3,1.6c-1.1,1.1-1.7,2.4-2,3.8l-1.9,10.6h-3.3l3.3-18.5
					h3.3l-0.5,3c1.6-2.2,3.6-3.3,5.9-3.3c0.4,0,1,0.1,1.9,0.2L680,167z"/>
				<path class="st6" d="M680.3,189.5v-3.3c2.1,0,3.7-0.3,4.6-1c0.9-0.6,1.5-1.6,1.9-2.9c-1.6,0-2.7-1.6-3.2-4.8l-2.3-13.8h3.6
					l2,13.4c0.2,1.3,0.7,2,1.4,2l6.7-15.4h3.7l-9.3,20.7c-0.8,1.7-1.8,3-3.1,3.8C685,189.1,683,189.5,680.3,189.5z"/>
			</g>
			<g>
			</g>
			<g>
				<polygon class="st6" points="708.7,182.2 713.1,157 716.7,157 712.2,182.2 				"/>
				<path class="st6" d="M729.3,182.2l1.9-10.7c0.2-1,0.3-1.7,0.3-2.4c0-2-1-2.9-3.1-2.9c-0.8,0-1.6,0.2-2.5,0.7
					c-0.9,0.5-1.6,1-2.1,1.6l-2.4,13.7h-3.3l2.5-14c0.1-0.3,0.1-0.7,0.1-1.1c0-1.2-0.1-2.2-0.4-3.1l3.2-0.6c0.3,1.7,0.5,2.6,0.4,2.7
					c1.4-1.8,3.4-2.7,6.1-2.7c3.3,0,5,1.7,5,5.1c0,0.7-0.1,1.4-0.2,2.3l-2,11.4H729.3z"/>
				<path class="st6" d="M735.7,181.1l1.7-3.1c0.4,0.4,1.1,0.9,1.9,1.2c0.8,0.4,1.6,0.6,2.2,0.6c1,0,1.9-0.3,2.5-0.8
					c0.7-0.6,1-1.3,1-2.2c0-0.5-0.2-0.9-0.5-1.3c-0.3-0.4-0.9-0.8-1.8-1.3l-2.4-1.3c-0.7-0.4-1.3-1-1.7-1.6
					c-0.4-0.7-0.6-1.4-0.6-2.1c0-1.7,0.7-3.1,2-4.1c1.3-1,3-1.6,4.9-1.6c1.3,0,3,0.4,4.9,1.3l-1.5,3c-1.1-1-2.3-1.6-3.6-1.6
					c-0.9,0-1.6,0.2-2.2,0.7c-0.6,0.4-0.9,1-0.9,1.7c0,0.5,0.2,1,0.5,1.4c0.4,0.4,1,0.8,1.8,1.3l2.4,1.3c0.7,0.4,1.3,0.9,1.7,1.6
					c0.4,0.6,0.6,1.3,0.6,2.1c0,2-0.7,3.5-2.2,4.7c-1.4,1.2-3.2,1.7-5.5,1.7C739,182.6,737.2,182.1,735.7,181.1z"/>
				<path class="st6" d="M754.9,166.4h-2.1l0.6-2.6h2.1l0.8-3.9l3.7-1.4l-1.2,5.3h5.1l-0.6,2.6h-5.1l-1.9,9.2
					c-0.1,0.7-0.2,1.3-0.2,1.7c0,1.8,0.9,2.6,2.6,2.6c0.9,0,1.8-0.2,2.7-0.6l-0.1,2.9c-0.9,0.3-2.5,0.5-4.6,0.5
					c-1.3,0-2.3-0.4-3.1-1.2c-0.7-0.8-1.1-1.9-1.1-3.3c0-0.3,0.1-0.7,0.2-1.2L754.9,166.4z"/>
				<path class="st6" d="M771.3,156.5c0.6,0,1.2,0.2,1.6,0.7c0.4,0.4,0.7,1,0.7,1.6c0,0.6-0.2,1.2-0.7,1.6c-0.4,0.4-1,0.7-1.6,0.7
					c-0.6,0-1.2-0.2-1.6-0.7c-0.4-0.4-0.7-1-0.7-1.6c0-0.6,0.2-1.2,0.7-1.6C770.2,156.7,770.7,156.5,771.3,156.5z M766,182.2
					l2.8-15.7h-2.4l0.6-2.7h5.6l-3.3,18.4H766z"/>
				<path class="st6" d="M779.5,166.4h-2.1l0.6-2.6h2.1l0.8-3.9l3.7-1.4l-1.2,5.3h5.1l-0.6,2.6h-5.1l-1.9,9.2
					c-0.1,0.7-0.2,1.3-0.2,1.7c0,1.8,0.9,2.6,2.6,2.6c0.9,0,1.8-0.2,2.7-0.6l-0.1,2.9c-0.9,0.3-2.5,0.5-4.6,0.5
					c-1.3,0-2.3-0.4-3.1-1.2c-0.7-0.8-1.1-1.9-1.1-3.3c0-0.3,0.1-0.7,0.2-1.2L779.5,166.4z"/>
				<path class="st6" d="M795.8,163.8l-2.2,11.8c-0.1,0.5-0.1,1-0.1,1.4c0,1.9,1,2.9,3,2.9c1.2,0,2.4-0.5,3.5-1.4
					c1.1-0.9,1.8-2,2.1-3.3l2.1-11.4h3.5l-3.4,18.5h-3.4l0.5-2.6c-1.3,2-3.5,3-6.7,3c-1.4,0-2.6-0.4-3.4-1.3
					c-0.8-0.9-1.2-2.1-1.2-3.6c0-0.6,0.1-1.2,0.2-1.8l2.1-12.1H795.8z"/>
				<path class="st6" d="M813.1,166.4h-2.1l0.6-2.6h2.1l0.8-3.9l3.7-1.4l-1.2,5.3h5.1l-0.6,2.6h-5.1l-1.9,9.2
					c-0.2,0.7-0.2,1.3-0.2,1.7c0,1.8,0.9,2.6,2.6,2.6c0.9,0,1.8-0.2,2.7-0.6l-0.1,2.9c-0.9,0.3-2.5,0.5-4.6,0.5
					c-1.3,0-2.3-0.4-3.1-1.2c-0.7-0.8-1.1-1.9-1.1-3.3c0-0.3,0.1-0.7,0.2-1.2L813.1,166.4z"/>
			</g>
			<path class="st6" d="M827.2,173.5c-0.1,0.6-0.2,1.1-0.2,1.6c0,1.5,0.4,2.7,1.3,3.5c0.9,0.8,2,1.2,3.6,1.2c1.4,0,2.7-0.5,4.1-1.5
				l-0.3,3.3c-1.8,0.6-3.5,0.9-4.9,0.9c-4.8,0-7.1-2.7-7.1-8c0-3.1,1-5.8,3-7.9c2-2.2,4.5-3.2,7.6-3.2c1.8,0,3.3,0.4,4.4,1.2
				c1.1,0.8,1.6,1.9,1.6,3.3c0,2-0.9,3.6-2.6,4.8c-1.7,1.2-3.8,1.7-6.3,1.7C829.8,174.4,828.4,174.1,827.2,173.5z M827.8,171.1
				c0.9,0.4,1.9,0.6,3.1,0.6c1.8,0,3.3-0.3,4.4-0.9c1.1-0.6,1.7-1.4,1.7-2.6c0-1.4-1-2.1-2.9-2.1C831.1,166.2,829,167.8,827.8,171.1
				z"/>
		</g>
	</g>
</g>
</svg>
